<svg width="122" height="60" viewBox="0 0 122 60" fill="none" xmlns="http://www.w3.org/2000/svg">
<path d="M20.5 49V11" stroke="#BDBDBD" stroke-width="0.5"/>
<path d="M2 30.5H39.5" stroke="#BDBDBD" stroke-width="0.5"/>
<path d="M20.5 11L1.5 30L20.5 49L39.5 30L20.5 11Z" stroke="white"/>
<path d="M2 30L26.5 25M26.5 25L20.5 11M26.5 25L20.5 49M26.5 25L39 30" stroke="white"/>
<circle cx="20.5" cy="11" r="1.5" fill="white"/>
<circle cx="1.5" cy="30" r="1.5" fill="white"/>
<circle cx="20.5" cy="49" r="1.5" fill="white"/>
<circle cx="39.5" cy="30" r="1.5" fill="white"/>
<rect x="24" y="22.5791" width="5" height="5" transform="rotate(-0.909018 24 22.5791)" fill="white"/>
<path d="M50.992 38.5V21.7H54.88V38.5H50.992ZM58.867 38.5V21.7H66.139C67.643 21.7 68.939 21.948 70.027 22.444C71.115 22.924 71.955 23.62 72.547 24.532C73.139 25.444 73.435 26.532 73.435 27.796C73.435 29.044 73.139 30.124 72.547 31.036C71.955 31.948 71.115 32.652 70.027 33.148C68.939 33.628 67.643 33.868 66.139 33.868H61.027L62.755 32.116V38.5H58.867ZM62.755 32.548L61.027 30.7H65.923C67.123 30.7 68.019 30.444 68.611 29.932C69.203 29.42 69.499 28.708 69.499 27.796C69.499 26.868 69.203 26.148 68.611 25.636C68.019 25.124 67.123 24.868 65.923 24.868H61.027L62.755 23.02V32.548ZM76.2108 38.5V21.7H83.8428C85.6668 21.7 87.2748 22.052 88.6668 22.756C90.0588 23.444 91.1468 24.412 91.9308 25.66C92.7148 26.908 93.1068 28.388 93.1068 30.1C93.1068 31.796 92.7148 33.276 91.9308 34.54C91.1468 35.788 90.0588 36.764 88.6668 37.468C87.2748 38.156 85.6668 38.5 83.8428 38.5H76.2108ZM80.0988 35.308H83.6508C84.7708 35.308 85.7388 35.1 86.5547 34.684C87.3868 34.252 88.0268 33.644 88.4748 32.86C88.9388 32.076 89.1708 31.156 89.1708 30.1C89.1708 29.028 88.9388 28.108 88.4748 27.34C88.0268 26.556 87.3868 25.956 86.5547 25.54C85.7388 25.108 84.7708 24.892 83.6508 24.892H80.0988V35.308ZM99.5318 38.5L94.0358 21.7H98.0678L102.844 36.58H100.828L105.82 21.7H109.42L114.22 36.58H112.276L117.172 21.7H120.892L115.396 38.5H111.22L106.972 25.444H108.076L103.708 38.5H99.5318Z" fill="white"/>
</svg>
